Coordinates
version=1
nRows=16
nColumns=40
inDegrees=yes

Units are S.I. units (second, meters, Newtons, ...)
Angles are in degrees.

endheader
time	pelvis_tilt	pelvis_list	pelvis_rotation	pelvis_tx	pelvis_ty	pelvis_tz	hip_flexion_r	hip_adduction_r	hip_rotation_r	knee_angle_r	knee_angle_r_beta	ankle_angle_r	subtalar_angle_r	mtp_angle_r	hip_flexion_l	hip_adduction_l	hip_rotation_l	knee_angle_l	knee_angle_l_beta	ankle_angle_l	subtalar_angle_l	mtp_angle_l	lumbar_extension	lumbar_bending	lumbar_rotation	arm_flex_r	arm_add_r	arm_rot_r	elbow_flex_r	pro_sup_r	wrist_flex_r	wrist_dev_r	arm_flex_l	arm_add_l	arm_rot_l	elbow_flex_l	pro_sup_l	wrist_flex_l	wrist_dev_l
      1.32000000	     -0.88332487	      2.59673851	     -4.52530530	      0.43432818	      0.94149556	      1.04698315	     -8.94617606	     -3.91235637	    -19.57618209	    -15.61983452	     -0.27261754	     12.26092639	      5.32309015	    -14.91472239	     23.61894458	      2.93764203	     26.16966332	     -8.71244357	     -0.15206083	     -1.56069839	      2.19711739	      9.17359697	     -1.24464072	     -7.09492171	     11.92242352	     14.02692903	    -15.15890246	    -14.49792880	     30.35286234	     89.95437384	      0.00000000	      0.00000000	    -17.65972382	     11.45502432	     16.29593416	      5.98986496	     89.95437384	      0.00000000	      0.00000000
      1.33000000	     -0.40360500	      2.96105554	     -4.58058394	      0.44515829	      0.94100577	      1.04487166	    -10.00881705	     -4.79369706	    -20.22542749	    -16.01940049	     -0.27959128	     12.22180731	      6.89757867	    -15.46186324	     22.90604210	      2.15419246	     24.46346261	     -8.89554275	     -0.15525651	     -1.30792630	      4.24987194	      8.81605787	     -1.57254811	     -7.46616516	     12.00680880	     13.95249984	    -14.91494658	    -15.10024817	     30.56901810	     89.95437384	      0.00000000	      0.00000000	    -17.58104562	     11.57119526	     15.08553589	      5.93514088	     89.95437384	      0.00000000	      0.00000000
      1.34000000	     -0.45991695	      3.00799833	     -4.82560539	      0.45595522	      0.93969844	      1.04330451	    -10.44334014	     -5.15395609	    -20.05129123	    -16.39796434	     -0.28619847	     12.13613052	      6.71299809	    -15.24137190	     22.90971625	      2.10812696	     23.90294352	     -9.67864450	     -0.16892421	     -1.29781671	      4.26918730	      8.63062893	     -1.24425230	     -7.46533156	     12.23010707	     13.76495454	    -14.81619227	    -14.97406337	     30.66167312	     89.95437384	      0.00000000	      0.00000000	    -17.61743570	     11.57511078	     14.99823974	      6.02772875	     89.95437384	      0.00000000	      0.00000000
      1.35000000	     -0.21391866	      3.12159490	     -4.99436061	      0.46715166	      0.93879591	      1.04130367	    -11.27631882	     -5.64798008	    -20.05975281	    -16.72383698	     -0.29188602	     11.92997520	      6.88878646	    -15.13296720	     22.52519254	      1.87673519	     23.28620109	    -10.57029466	     -0.18448644	     -0.82078853	      4.58440749	      8.38991839	     -1.24800194	     -7.54679042	     12.37255334	     13.54987576	    -14.67530519	    -15.04226280	     30.77170918	     89.95437384	      0.00000000	      0.00000000	    -17.45906669	     11.58483261	     14.88530669	      5.80985545	     89.95437384	      0.00000000	      0.00000000
      1.36000000	     -0.38946035	      3.08914729	     -5.14825865	      0.47838489	      0.93729007	      1.03936843	    -11.53762839	     -5.92286755	    -19.77280288	    -17.26663495	     -0.30135963	     11.61358206	      6.64960127	    -14.81122012	     22.44977531	      1.84778492	     22.72845165	    -11.20843433	     -0.19562408	     -0.95663748	      4.45601065	      8.22363863	     -0.75507755	     -7.43093751	     12.39971778	     13.22813667	    -14.49703334	    -14.94581969	     30.96171071	     89.95437384	      0.00000000	      0.00000000	    -17.68662956	     11.54055959	     14.83478667	      6.22552608	     89.95437384	      0.00000000	      0.00000000
      1.37000000	      0.21512455	      3.64489177	     -5.32256471	      0.49045013	      0.93701333	      1.03660997	    -12.77143819	     -7.28672466	    -21.27647674	    -17.69043601	     -0.30875635	     11.35930185	      9.07650046	    -15.64336241	     21.40393964	      0.93027604	     22.14613454	    -11.64896608	     -0.20331281	     -1.27673665	      5.20926861	      8.03795596	     -1.04986112	     -7.98625465	     12.49641187	     13.00786852	    -14.32995226	    -14.92343671	     30.84196927	     89.95437384	      0.00000000	      0.00000000	    -17.41126243	     11.54179575	     15.15292559	      6.05519053	     89.95437384	      0.00000000	      0.00000000
      1.38000000	      0.55668389	      3.96528876	     -5.58097079	      0.50225775	      0.93655455	      1.03433391	    -13.65831027	     -8.12205102	    -21.46788070	    -18.06300772	     -0.31525896	     10.72406753	      9.26182958	    -15.56464385	     20.77366649	      0.59231570	     22.93516685	    -12.10112399	     -0.21120446	     -3.49627454	      5.66012813	      8.23495451	     -1.05281626	     -8.28984026	     12.61184980	     12.77239983	    -14.07747270	    -14.98316893	     30.73302659	     89.95437384	      0.00000000	      0.00000000	    -17.30658114	     11.53095893	     15.15071592	      6.10666508	     89.95437384	      0.00000000	      0.00000000
      1.39000000	      0.71033104	      4.20189021	     -5.62237225	      0.51369269	      0.93596952	      1.03178238	    -14.30752756	     -8.78220897	    -21.61208778	    -18.52711788	     -0.32335921	     10.25375460	      9.15859783	    -15.35180637	     20.53809062	      0.36689886	     23.34575100	    -12.74554820	     -0.22245178	     -5.13275273	      5.85649932	      8.34848714	     -0.91607236	     -8.49914773	     12.54718291	     12.52610159	    -13.87868278	    -14.86044492	     30.49101101	     89.95437384	      0.00000000	      0.00000000	    -17.08471552	     11.53772701	     15.02864587	      6.10917079	     89.95437384	      0.00000000	      0.00000000
      1.40000000	      1.20333557	      5.14101797	     -5.87717738	      0.52576682	      0.93601575	      1.02861438	    -15.04859428	    -10.70558837	    -22.77493678	    -19.60620339	     -0.34219280	      9.60870094	     11.27194190	    -15.71847548	     19.63674702	     -0.74775164	     23.77255166	    -12.69749436	     -0.22161308	     -6.70609497	      5.70500021	      6.44599380	     -0.99600018	     -9.45411345	     12.61849001	     12.24542347	    -13.52630024	    -15.11370234	     30.28670640	     89.95437384	      0.00000000	      0.00000000	    -16.91179979	     11.53971272	     14.95449688	      6.25448373	     89.95437384	      0.00000000	      0.00000000
      1.41000000	      1.38531870	      5.77553190	     -5.91758055	      0.53735279	      0.93585183	      1.02533570	    -15.48567650	    -12.01022004	    -23.21913326	    -20.54323129	     -0.35854703	      8.76536914	     11.56326715	    -15.54281486	     19.49554907	     -1.41242310	     23.74344861	    -13.96961401	     -0.24381576	     -7.14559484	      5.49358221	      5.17366727	     -0.83706085	    -10.06610748	     12.54392028	     11.97038312	    -13.16792623	    -15.53118396	     29.93478617	     89.95437384	      0.00000000	      0.00000000	    -16.64734059	     11.54220481	     14.95139147	      6.38962121	     89.95437384	      0.00000000	      0.00000000
      1.42000000	      1.44889174	      6.19550951	     -5.84579316	      0.54861685	      0.93592566	      1.02224416	    -15.68185217	    -12.95851925	    -23.29688032	    -21.61478269	     -0.37724913	      7.74819575	     11.01248167	    -15.01175096	     19.61502612	     -1.88603780	     23.21835515	    -15.68076956	     -0.27368106	     -6.66588410	      5.29790210	      4.68330453	     -0.60963262	    -10.45348779	     12.35818124	     11.66571597	    -12.84801972	    -15.57147807	     29.52703912	     89.95437384	      0.00000000	      0.00000000	    -16.24822292	     11.56594136	     14.71606513	      6.45964396	     89.95437384	      0.00000000	      0.00000000
      1.43000000	      1.47931742	      6.58777563	     -5.70351791	      0.55996091	      0.93619965	      1.01895176	    -15.70201580	    -13.94566482	    -23.52613029	    -22.96346227	     -0.40078802	      6.39266390	     10.67435693	    -14.43533547	     19.69166143	     -2.47505670	     22.48599425	    -17.13286756	     -0.29902495	     -6.03176285	      5.18156251	      4.17355843	     -0.35240533	    -10.78479267	     12.11927467	     11.25815604	    -12.57076086	    -15.65044585	     29.17166849	     89.95437384	      0.00000000	      0.00000000	    -15.79924498	     11.56069086	     14.44395186	      6.47334036	     89.95437384	      0.00000000	      0.00000000
      1.44000000	      1.31610085	      7.39745318	     -5.46580473	      0.57132488	      0.93642895	      1.01494217	    -15.27382844	    -15.70012318	    -24.54793028	    -24.91588166	     -0.43486417	      5.05095429	     12.01841718	    -14.07119359	     19.68926120	     -3.92080398	     21.08833550	    -17.67224484	     -0.30843886	     -5.75113019	      7.21575768	      3.06261616	      0.15182627	    -11.52461364	     11.90111036	     10.75054309	    -12.14086242	    -16.38893865	     28.83250500	     89.95437384	      0.00000000	      0.00000000	    -15.35539171	     11.61793228	     14.17016341	      6.67153961	     89.95437384	      0.00000000	      0.00000000
      1.45000000	      1.41387889	      7.91709029	     -5.24938295	      0.58261592	      0.93729165	      1.01129348	    -15.08833171	    -16.97336313	    -25.01354020	    -26.69138631	     -0.46585257	      2.91314667	     11.70083897	    -13.31812815	     19.23519694	     -5.07110096	     19.67704599	    -18.13849427	     -0.31657645	     -5.13827906	      9.03245343	      2.31421078	      0.31328877	    -11.98463496	     11.59610025	     10.17643958	    -11.91096263	    -16.23844908	     28.62484561	     89.95437384	      0.00000000	      0.00000000	    -14.82740140	     11.64024290	     13.81892679	      6.82234424	     89.95437384	      0.00000000	      0.00000000
      1.46000000	      1.51554610	      8.28582745	     -5.09070655	      0.59385311	      0.93836563	      1.00801194	    -14.77641884	    -18.04648547	    -25.14296540	    -28.48856603	     -0.49721928	      0.49359871	     11.02414511	    -12.53876938	     18.70872858	     -5.84879392	     19.14416797	    -18.66873102	     -0.32583082	     -4.32195533	      9.13605849	      1.99490304	      0.46931879	    -12.29765597	     11.40648455	      9.56774799	    -11.67716306	    -16.24383079	     28.36188581	     89.95437384	      0.00000000	      0.00000000	    -14.21695645	     11.65643343	     13.96812155	      7.06529078	     89.95437384	      0.00000000	      0.00000000
      1.47000000	      1.61520548	      9.00901418	     -4.93119459	      0.60453300	      0.93957555	      1.00418398	    -14.19525959	    -19.69264706	    -25.50012110	    -30.68542390	     -0.53556168	     -1.87821852	     10.77474928	    -11.64046134	     17.87340896	     -7.33743163	     17.90038227	    -18.31132333	     -0.31959288	     -3.94500522	     10.87652163	      2.02962214	      0.56785366	    -12.97364576	     11.07798746	      9.08900040	    -11.44692063	    -16.00757111	     28.04475066	     89.95437384	      0.00000000	      0.00000000	    -13.47122600	     11.59952565	     14.85400848	      7.30725973	     89.95437384	      0.00000000	      0.00000000
